<svg width="28" height="28" viewBox="0 0 28 28" fill="none" xmlns="http://www.w3.org/2000/svg">
<g clip-path="url(#clip0_496_561)">
<path fill-rule="evenodd" clip-rule="evenodd" d="M3.40876 24.2928C3.3499 24.3134 3.37234 24.3541 3.44251 24.3541C3.47964 24.3541 3.51001 24.3433 3.51001 24.33C3.51001 24.2989 3.45218 24.2777 3.40876 24.2928Z" fill="#24D46C"/>
<path fill-rule="evenodd" clip-rule="evenodd" d="M12.5279 0.0337564C12.5279 0.0582454 12.4446 0.0698554 12.2247 0.0760924C12.0579 0.0807904 11.9149 0.0953434 11.9068 0.108438C11.8987 0.121533 11.7975 0.135249 11.6819 0.138948C11.5544 0.142998 11.4645 0.15828 11.4532 0.177801C11.4421 0.196836 11.3472 0.214251 11.2206 0.220488C11.0842 0.227211 11.0026 0.243006 10.9956 0.264012C10.9887 0.284586 10.9295 0.297006 10.8383 0.297006C10.7263 0.297006 10.6921 0.306483 10.6921 0.337506C10.6921 0.369015 10.6561 0.378006 10.5301 0.378006C10.404 0.378006 10.3681 0.386997 10.3681 0.418506C10.3681 0.449097 10.3351 0.459006 10.2331 0.459006C10.1403 0.459006 10.0981 0.469995 10.0981 0.494079C10.0981 0.517947 10.0692 0.525804 10.0079 0.518649C9.95344 0.512277 9.90263 0.523293 9.87944 0.546459C9.85835 0.567573 9.79268 0.592683 9.73353 0.602268C9.67437 0.61188 9.62183 0.632157 9.61678 0.647358C9.6117 0.662559 9.55997 0.675006 9.50181 0.675006C9.42581 0.675006 9.39605 0.6864 9.39605 0.715506C9.39605 0.745503 9.36454 0.756006 9.27455 0.756006C9.18456 0.756006 9.15305 0.766509 9.15305 0.796506C9.15305 0.823398 9.12614 0.837006 9.07289 0.837006C9.01274 0.837006 8.99662 0.847104 9.00828 0.877506C9.02054 0.909447 9.00042 0.918006 8.91294 0.918006C8.85195 0.918006 8.80205 0.930156 8.80205 0.945006C8.80205 0.959856 8.76523 0.972006 8.72022 0.972006C8.67237 0.972006 8.6319 0.988827 8.62283 1.01251C8.61408 1.03527 8.5739 1.05301 8.53108 1.05301C8.48921 1.05301 8.43669 1.07123 8.41442 1.09351C8.39214 1.11578 8.34837 1.13401 8.31713 1.13401C8.2859 1.13401 8.25336 1.15223 8.24483 1.17451C8.23603 1.19746 8.1958 1.21501 8.152 1.21501C8.09444 1.21501 8.0787 1.22532 8.09028 1.25551C8.10205 1.28615 8.08542 1.29601 8.02194 1.29601C7.9758 1.29601 7.93805 1.30683 7.93805 1.32009C7.93805 1.33332 7.90622 1.35214 7.86729 1.36191C7.82838 1.37169 7.77943 1.39677 7.7585 1.4177C7.73761 1.43859 7.70261 1.44885 7.68077 1.44048C7.65596 1.43095 7.64105 1.44151 7.64105 1.46862C7.64105 1.49883 7.61646 1.51201 7.56005 1.51201C7.50605 1.51201 7.47905 1.52551 7.47905 1.55251C7.47905 1.57951 7.45205 1.59301 7.39805 1.59301C7.34405 1.59301 7.31705 1.60651 7.31705 1.63351C7.31705 1.6587 7.29157 1.67401 7.24955 1.67401C7.20754 1.67401 7.18205 1.68932 7.18205 1.71451C7.18205 1.74151 7.15505 1.75501 7.10105 1.75501C7.04705 1.75501 7.02005 1.76851 7.02005 1.79551C7.02005 1.81778 7.00183 1.83601 6.97955 1.83601C6.95728 1.83601 6.93905 1.84816 6.93905 1.86301C6.93905 1.87786 6.9083 1.89001 6.87072 1.89001C6.83311 1.89001 6.79579 1.90712 6.78775 1.92808C6.77973 1.949 6.74366 1.97354 6.70761 1.98259C6.67154 1.99163 6.64205 2.01097 6.64205 2.02552C6.64205 2.0401 6.62383 2.05201 6.60155 2.05201C6.57928 2.05201 6.56105 2.07023 6.56105 2.09251C6.56105 2.11702 6.536 2.13301 6.4976 2.13301C6.45889 2.13301 6.40994 2.1646 6.37205 2.21401C6.33417 2.26342 6.28522 2.29501 6.2465 2.29501C6.21162 2.29501 6.18305 2.30716 6.18305 2.32201C6.18305 2.33686 6.16483 2.34901 6.14255 2.34901C6.12028 2.34901 6.10205 2.36591 6.10205 2.38659C6.10205 2.40725 6.07168 2.43179 6.03455 2.4411C5.99743 2.45042 5.96705 2.46997 5.96705 2.48452C5.96705 2.4991 5.94845 2.51101 5.92572 2.51101C5.90296 2.51101 5.87736 2.52923 5.86883 2.55151C5.86027 2.57378 5.8242 2.59201 5.78867 2.59201C5.74925 2.59201 5.72405 2.6078 5.72405 2.63251C5.72405 2.65478 5.70583 2.67301 5.68355 2.67301C5.66128 2.67301 5.64305 2.69123 5.64305 2.71351C5.64305 2.73578 5.62483 2.75401 5.60255 2.75401C5.58028 2.75401 5.56205 2.76616 5.56205 2.78101C5.56205 2.79586 5.54477 2.80801 5.52363 2.80801C5.50249 2.80801 5.44876 2.84446 5.40421 2.88901C5.35966 2.93356 5.31012 2.97001 5.29413 2.97001C5.27815 2.97001 5.26505 2.98823 5.26505 3.01051C5.26505 3.03278 5.24683 3.05101 5.22455 3.05101C5.20228 3.05101 5.18405 3.06923 5.18405 3.09151C5.18405 3.11378 5.16583 3.13201 5.14355 3.13201C5.12128 3.13201 5.10305 3.15153 5.10305 3.1754C5.10305 3.20231 5.08812 3.21306 5.06372 3.20369C5.04004 3.19459 4.9751 3.23647 4.90066 3.3088C4.83265 3.3749 4.76531 3.42901 4.75103 3.42901C4.73675 3.42901 4.72505 3.44723 4.72505 3.46951C4.72505 3.49178 4.70683 3.51001 4.68455 3.51001C4.66228 3.51001 4.64405 3.52823 4.64405 3.55051C4.64405 3.57278 4.63096 3.59101 4.61498 3.59101C4.5772 3.59101 4.42805 3.74015 4.42805 3.77793C4.42805 3.79391 4.40983 3.80701 4.38755 3.80701C4.36528 3.80701 4.34705 3.82523 4.34705 3.84751C4.34705 3.86978 4.32883 3.88801 4.30655 3.88801C4.28428 3.88801 4.26605 3.90623 4.26605 3.92851C4.26605 3.95078 4.24783 3.96901 4.22555 3.96901C4.20328 3.96901 4.18505 3.98723 4.18505 4.00951C4.18505 4.03178 4.16683 4.05001 4.14455 4.05001C4.12228 4.05001 4.10405 4.06823 4.10405 4.09051C4.10405 4.11278 4.09104 4.13101 4.07514 4.13101C4.03774 4.13101 3.96905 4.19969 3.96905 4.23709C3.96905 4.25299 3.95083 4.26601 3.92855 4.26601C3.90628 4.26601 3.88805 4.28423 3.88805 4.30651C3.88805 4.32878 3.86983 4.34701 3.84755 4.34701C3.82528 4.34701 3.80705 4.36523 3.80705 4.38751C3.80705 4.40978 3.78883 4.42801 3.76655 4.42801C3.74428 4.42801 3.72605 4.44623 3.72605 4.46851C3.72605 4.49078 3.71304 4.50901 3.69714 4.50901C3.65974 4.50901 3.59105 4.57769 3.59105 4.61509C3.59105 4.63099 3.57283 4.64401 3.55055 4.64401C3.52828 4.64401 3.51005 4.66318 3.51005 4.68659C3.51005 4.70999 3.4736 4.76561 3.42905 4.81016C3.3845 4.85471 3.34805 4.90844 3.34805 4.92959C3.34805 4.95073 3.33496 4.96801 3.31898 4.96801C3.28134 4.96801 3.14766 5.1026 3.12458 5.16376C3.11477 5.18976 3.09423 5.21101 3.07889 5.21101C3.06358 5.21101 3.05105 5.24138 3.05105 5.27851C3.05105 5.32052 3.03575 5.34601 3.01055 5.34601C2.98828 5.34601 2.97005 5.36423 2.97005 5.38651C2.97005 5.40878 2.95183 5.42701 2.92955 5.42701C2.90728 5.42701 2.88905 5.44523 2.88905 5.46751C2.88905 5.48978 2.87715 5.50801 2.86257 5.50801C2.84801 5.50801 2.82847 5.53838 2.81915 5.57551C2.80984 5.61263 2.78529 5.64301 2.76464 5.64301C2.74396 5.64301 2.72705 5.66123 2.72705 5.68351C2.72705 5.70578 2.7149 5.72401 2.70005 5.72401C2.6852 5.72401 2.67305 5.74223 2.67305 5.76451C2.67305 5.78678 2.65483 5.80501 2.63255 5.80501C2.60555 5.80501 2.59205 5.83201 2.59205 5.88601C2.59205 5.94001 2.57855 5.96701 2.55155 5.96701C2.52928 5.96701 2.51105 5.98002 2.51105 5.99592C2.51105 6.01185 2.49283 6.04309 2.47055 6.06537C2.44828 6.08764 2.43005 6.1293 2.43005 6.15792C2.43005 6.18657 2.41704 6.21001 2.40114 6.21001C2.35348 6.21001 2.29505 6.28331 2.29505 6.34309C2.29505 6.37479 2.27753 6.39901 2.25455 6.39901C2.23206 6.39901 2.21405 6.42301 2.21405 6.45301C2.21405 6.483 2.19605 6.50701 2.17355 6.50701C2.15058 6.50701 2.13305 6.53123 2.13305 6.56292C2.13305 6.5937 2.11483 6.63709 2.09255 6.65937C2.07028 6.68164 2.05205 6.7233 2.05205 6.75192C2.05205 6.78057 2.03383 6.80401 2.01155 6.80401C1.98685 6.80401 1.97105 6.8292 1.97105 6.86862C1.97105 6.90415 1.95283 6.94022 1.93055 6.94878C1.90828 6.95731 1.89005 6.98291 1.89005 7.00567C1.89005 7.0284 1.8779 7.04701 1.86305 7.04701C1.8482 7.04701 1.83605 7.07738 1.83605 7.11451C1.83605 7.15652 1.82075 7.18201 1.79555 7.18201C1.76855 7.18201 1.75505 7.20901 1.75505 7.26301C1.75505 7.30756 1.74315 7.34401 1.72857 7.34401C1.71401 7.34401 1.69447 7.37438 1.68515 7.41151C1.67584 7.44863 1.65129 7.47901 1.63064 7.47901C1.60688 7.47901 1.59305 7.50881 1.59305 7.56001C1.59305 7.61401 1.57955 7.64101 1.55255 7.64101C1.52555 7.64101 1.51205 7.66801 1.51205 7.72201C1.51205 7.76656 1.50015 7.80301 1.48557 7.80301C1.47101 7.80301 1.45147 7.83338 1.44215 7.87051C1.43284 7.90763 1.41437 7.93801 1.40114 7.93801C1.38788 7.93801 1.37705 7.97446 1.37705 8.01901C1.37705 8.07301 1.36355 8.10001 1.33655 8.10001C1.30731 8.10001 1.29605 8.13 1.29605 8.20801C1.29605 8.28601 1.2848 8.31601 1.25555 8.31601C1.23007 8.31601 1.21505 8.34171 1.21505 8.38542C1.21505 8.42363 1.19683 8.47309 1.17455 8.49537C1.15228 8.51764 1.13405 8.57016 1.13405 8.61203C1.13405 8.65486 1.11632 8.69503 1.09355 8.70378C1.07128 8.71231 1.05305 8.74906 1.05305 8.7854C1.05305 8.82177 1.04012 8.85582 1.0243 8.86108C1.0085 8.86635 0.988687 8.92205 0.980263 8.98485C0.971839 9.04763 0.954397 9.09901 0.941491 9.09901C0.928612 9.09901 0.918055 9.13459 0.918055 9.17809C0.918055 9.22156 0.89983 9.27537 0.877555 9.29765C0.854821 9.32038 0.837055 9.38637 0.837055 9.44809C0.837055 9.52779 0.825931 9.55801 0.796555 9.55801C0.768124 9.55801 0.756055 9.58671 0.756055 9.65442C0.756055 9.70748 0.73783 9.76909 0.715555 9.79137C0.692038 9.81486 0.675055 9.88082 0.675055 9.94853C0.675055 10.0273 0.661906 10.0703 0.634555 10.0808C0.608014 10.091 0.594055 10.1331 0.594055 10.2029C0.594055 10.2615 0.581716 10.3136 0.56665 10.3187C0.551584 10.3237 0.531604 10.4097 0.522262 10.5099C0.512893 10.6101 0.494857 10.692 0.48214 10.692C0.46945 10.692 0.459055 10.7649 0.459055 10.854C0.459055 10.98 0.450064 11.016 0.418555 11.016C0.385939 11.016 0.378055 11.058 0.378055 11.232C0.378055 11.406 0.370171 11.448 0.337555 11.448C0.304372 11.448 0.297055 11.4947 0.297055 11.7064C0.297055 11.9001 0.286903 11.975 0.256555 12.0054C0.224614 12.0373 0.216055 12.1219 0.216055 12.4062C0.216055 12.6704 0.207064 12.7695 0.182305 12.7778C0.133138 12.7941 0.133138 14.6379 0.182305 14.6543C0.206983 14.6625 0.216055 14.7589 0.216055 15.0123C0.216055 15.2729 0.225424 15.3685 0.253693 15.3968C0.278857 15.4219 0.294517 15.518 0.300943 15.6867C0.30745 15.8573 0.32149 15.9427 0.344305 15.9503C0.366985 15.9578 0.378055 16.023 0.378055 16.1491C0.378055 16.2909 0.387937 16.3405 0.418555 16.3522C0.448714 16.3638 0.459055 16.4119 0.459055 16.5404C0.459055 16.6353 0.469693 16.713 0.482707 16.713C0.495721 16.713 0.51211 16.7823 0.51913 16.8669C0.52615 16.9515 0.545887 17.0255 0.562978 17.0311C0.580069 17.0368 0.594055 17.0943 0.594055 17.1588C0.594055 17.2271 0.610984 17.2931 0.634555 17.3166C0.657289 17.3394 0.675055 17.4054 0.675055 17.4671C0.675055 17.5468 0.686179 17.577 0.715555 17.577C0.745471 17.577 0.756055 17.6083 0.756055 17.6966C0.756055 17.7669 0.772741 17.8328 0.796555 17.8566C0.81883 17.8789 0.837055 17.9392 0.837055 17.9907C0.837055 18.0489 0.852337 18.0901 0.877555 18.0998C0.89983 18.1083 0.918055 18.1461 0.918055 18.1837C0.918055 18.2213 0.930205 18.252 0.945055 18.252C0.959905 18.252 0.972055 18.301 0.972055 18.3608C0.972055 18.4327 0.985825 18.475 1.01255 18.4852C1.03532 18.494 1.05305 18.5342 1.05305 18.577C1.05305 18.6189 1.07128 18.6714 1.09355 18.6936C1.11583 18.7159 1.13405 18.7654 1.13405 18.8036C1.13405 18.8473 1.14907 18.873 1.17455 18.873C1.2038 18.873 1.21505 18.903 1.21505 18.981C1.21505 19.059 1.22631 19.089 1.25555 19.089C1.28104 19.089 1.29605 19.1147 1.29605 19.1584C1.29605 19.1966 1.31428 19.2461 1.33655 19.2684C1.35883 19.2906 1.37705 19.3323 1.37705 19.3609C1.37705 19.3896 1.3892 19.413 1.40405 19.413C1.4189 19.413 1.43105 19.4438 1.43105 19.4813C1.43105 19.519 1.44928 19.5567 1.47155 19.5652C1.49383 19.5738 1.51205 19.6099 1.51205 19.6454C1.51205 19.6848 1.52785 19.71 1.55255 19.71C1.57934 19.71 1.59305 19.7368 1.59305 19.7891C1.59305 19.8326 1.61128 19.8864 1.63355 19.9086C1.65583 19.9309 1.67405 19.9625 1.67405 19.9789C1.67405 19.9953 1.69228 20.0157 1.71455 20.0242C1.73683 20.0328 1.75505 20.0689 1.75505 20.1044C1.75505 20.1399 1.76623 20.169 1.77992 20.169C1.79358 20.169 1.81278 20.2055 1.82255 20.25C1.83233 20.2946 1.85153 20.331 1.86519 20.331C1.87888 20.331 1.89005 20.3614 1.89005 20.3985C1.89005 20.4405 1.90536 20.466 1.93055 20.466C1.98707 20.466 1.98707 20.6701 1.93055 20.6918C1.90382 20.702 1.89005 20.7443 1.89005 20.8162C1.89005 20.876 1.87944 20.925 1.86648 20.925C1.85352 20.925 1.83684 20.9883 1.82941 21.0656C1.82199 21.143 1.80222 21.2108 1.78548 21.2164C1.76801 21.2222 1.75505 21.2875 1.75505 21.3699C1.75505 21.4724 1.74353 21.5177 1.71455 21.5288C1.68801 21.539 1.67405 21.5811 1.67405 21.6509C1.67405 21.7095 1.66072 21.762 1.64441 21.7674C1.6281 21.7728 1.60815 21.8376 1.60007 21.9114C1.59203 21.9852 1.56892 22.0552 1.54875 22.0671C1.5258 22.0806 1.51205 22.138 1.51205 22.2201C1.51205 22.2924 1.49872 22.356 1.48241 22.3614C1.4661 22.3668 1.44628 22.4286 1.4384 22.4986C1.43049 22.5687 1.41502 22.626 1.40397 22.626C1.39296 22.626 1.37784 22.6893 1.37041 22.7666C1.36299 22.844 1.34322 22.9118 1.32648 22.9174C1.30891 22.9232 1.29605 22.9893 1.29605 23.0737C1.29605 23.1857 1.28658 23.22 1.25555 23.22C1.2265 23.22 1.21505 23.2497 1.21505 23.3251C1.21505 23.388 1.20053 23.4358 1.17893 23.4441C1.15617 23.4528 1.14097 23.5098 1.13783 23.598C1.13495 23.6796 1.11623 23.7547 1.09296 23.778C1.07101 23.7999 1.05305 23.8585 1.05305 23.9082C1.05305 23.9579 1.04069 24.0026 1.02557 24.0077C1.01045 24.0127 0.990523 24.0805 0.981289 24.1584C0.972082 24.2363 0.955612 24.3 0.944731 24.3C0.93385 24.3 0.918838 24.3633 0.911413 24.4406C0.903988 24.518 0.884224 24.5858 0.867484 24.5914C0.850744 24.597 0.837055 24.65 0.837055 24.7092C0.837055 24.7689 0.819019 24.8349 0.796555 24.8574C0.774064 24.8799 0.756055 24.9459 0.756055 25.0059C0.756055 25.0659 0.738046 25.1319 0.715555 25.1544C0.693064 25.1769 0.675055 25.2429 0.675055 25.3029C0.675055 25.3629 0.657046 25.4289 0.634555 25.4514C0.61228 25.4736 0.594055 25.5335 0.594055 25.5844C0.594055 25.6353 0.582769 25.677 0.568999 25.677C0.555229 25.677 0.5356 25.7438 0.525394 25.8255C0.515188 25.9072 0.496072 25.974 0.48295 25.974C0.469801 25.974 0.459055 26.0408 0.459055 26.1225C0.459055 26.2365 0.449659 26.271 0.418555 26.271C0.389179 26.271 0.378055 26.3012 0.378055 26.3809C0.378055 26.4426 0.360289 26.5086 0.337555 26.5314C0.315064 26.5539 0.297055 26.6199 0.297055 26.6799C0.297055 26.7399 0.279046 26.8059 0.256555 26.8284C0.232984 26.8519 0.216055 26.9179 0.216055 26.9862C0.216055 27.0507 0.203122 27.1078 0.1873 27.1131C0.171505 27.1183 0.151687 27.174 0.143263 27.2369C0.134839 27.2996 0.117397 27.351 0.104491 27.351C0.0916117 27.351 0.0810547 27.4178 0.0810547 27.4995C0.0810547 27.6465 0.0818647 27.648 0.162055 27.648C0.211438 27.648 0.243055 27.634 0.243055 27.6121C0.243055 27.5872 0.286417 27.5752 0.384346 27.573C0.462052 27.5712 0.529876 27.557 0.535087 27.5414C0.540298 27.5258 0.597349 27.513 0.661879 27.513C0.730162 27.513 0.796123 27.4961 0.819694 27.4725C0.842185 27.45 0.9082 27.432 0.968194 27.432C1.02819 27.432 1.0942 27.414 1.11669 27.3915C1.13918 27.369 1.2052 27.351 1.26519 27.351C1.32519 27.351 1.3912 27.333 1.41369 27.3105C1.43654 27.2877 1.5025 27.27 1.56497 27.27C1.63852 27.27 1.68097 27.2564 1.69128 27.2295C1.70246 27.2004 1.74793 27.189 1.85244 27.189C1.95094 27.189 1.99805 27.1781 1.99805 27.1553C1.99805 27.1326 2.04395 27.1215 2.13756 27.1215C2.22515 27.1215 2.28123 27.109 2.2883 27.0878C2.295 27.0677 2.34703 27.054 2.41688 27.054C2.48516 27.054 2.55112 27.0371 2.57469 27.0135C2.59718 26.991 2.6632 26.973 2.72319 26.973C2.78319 26.973 2.8492 26.955 2.87169 26.9325C2.89443 26.9098 2.96042 26.892 3.02214 26.892C3.10184 26.892 3.13205 26.8809 3.13205 26.8515C3.13205 26.82 3.16805 26.811 3.29405 26.811C3.42006 26.811 3.45605 26.802 3.45605 26.7705C3.45605 26.7395 3.49032 26.73 3.60231 26.73C3.68275 26.73 3.7526 26.7189 3.75756 26.7053C3.7625 26.6917 3.8262 26.6741 3.89907 26.6662C3.97194 26.6583 4.03877 26.6409 4.04757 26.6274C4.05637 26.6139 4.1239 26.5962 4.19766 26.5881C4.27143 26.5799 4.33623 26.56 4.34168 26.5437C4.34711 26.5273 4.40435 26.514 4.46888 26.514C4.53716 26.514 4.60312 26.4971 4.62669 26.4735C4.64943 26.4508 4.71542 26.433 4.77714 26.433C4.85684 26.433 4.88705 26.4219 4.88705 26.3925C4.88705 26.361 4.92305 26.352 5.04905 26.352C5.16653 26.352 5.21105 26.342 5.21105 26.3158C5.21105 26.2908 5.25452 26.278 5.35164 26.2746C5.42897 26.2719 5.49882 26.2595 5.50689 26.2472C5.51497 26.2349 5.58077 26.2183 5.65315 26.2103C5.72551 26.2024 5.79234 26.1842 5.80165 26.1698C5.81094 26.1555 5.87777 26.1373 5.95015 26.1293C6.02251 26.1214 6.09053 26.1007 6.10124 26.0833C6.11199 26.0659 6.17123 26.051 6.2329 26.0502C6.3096 26.0491 6.34505 26.0368 6.34505 26.0113C6.34505 25.9841 6.38518 25.974 6.49355 25.974C6.60755 25.974 6.64205 25.9646 6.64205 25.9335C6.64205 25.9019 6.67837 25.893 6.80694 25.893C6.92771 25.893 6.9684 25.884 6.95898 25.8593C6.94983 25.8353 6.99006 25.8231 7.09784 25.8172C7.18127 25.8127 7.2536 25.7975 7.25855 25.7835C7.27059 25.7494 7.34405 25.7507 7.34405 25.785C7.34405 25.7999 7.37313 25.812 7.40867 25.812C7.4442 25.812 7.48027 25.8302 7.48883 25.8525C7.49736 25.8748 7.53511 25.893 7.57272 25.893C7.6103 25.893 7.64105 25.9049 7.64105 25.9195C7.64105 25.934 7.67435 25.9543 7.71503 25.9646C7.75572 25.9748 7.80519 25.9993 7.82498 26.0191C7.84474 26.0388 7.87828 26.055 7.89947 26.055C7.92069 26.055 7.93805 26.0662 7.93805 26.0799C7.93805 26.0935 7.9745 26.1127 8.01905 26.1225C8.0636 26.1323 8.10005 26.1505 8.10005 26.163C8.10005 26.1755 8.1365 26.1937 8.18105 26.2035C8.2256 26.2133 8.26205 26.2309 8.26205 26.2427C8.26205 26.2545 8.31065 26.2719 8.37005 26.2814C8.42945 26.2909 8.47805 26.3106 8.47805 26.3253C8.47805 26.34 8.50929 26.352 8.54747 26.352C8.58568 26.352 8.63514 26.3702 8.65742 26.3925C8.67969 26.4148 8.7335 26.433 8.77697 26.433C8.82927 26.433 8.85605 26.4467 8.85605 26.4735C8.85605 26.499 8.88176 26.514 8.92547 26.514C8.96368 26.514 9.01314 26.5322 9.03542 26.5545C9.05769 26.5768 9.11048 26.595 9.15273 26.595C9.19499 26.595 9.23386 26.6079 9.23913 26.6238C9.2444 26.6396 9.3001 26.6594 9.3629 26.6678C9.42567 26.6762 9.47705 26.6937 9.47705 26.7066C9.47705 26.7194 9.52565 26.73 9.58505 26.73C9.66306 26.73 9.69305 26.7413 9.69305 26.7705C9.69305 26.8005 9.72456 26.811 9.81455 26.811C9.90454 26.811 9.93605 26.8215 9.93605 26.8515C9.93605 26.8826 9.97056 26.892 10.0846 26.892C10.1985 26.892 10.2331 26.9014 10.2331 26.9325C10.2331 26.9619 10.2633 26.973 10.343 26.973C10.4047 26.973 10.4707 26.9908 10.4934 27.0135C10.5193 27.0394 10.5859 27.054 10.6782 27.054C10.7631 27.054 10.8268 27.0668 10.8329 27.0851C10.8386 27.1022 10.9125 27.1219 10.9972 27.1289C11.0818 27.136 11.1511 27.1523 11.1511 27.1654C11.1511 27.1784 11.247 27.189 11.3642 27.189C11.5287 27.189 11.5808 27.1982 11.5928 27.2295C11.6049 27.2609 11.6576 27.27 11.8271 27.27C11.9856 27.27 12.0571 27.2812 12.0864 27.3105C12.1182 27.3423 12.2014 27.351 12.4737 27.351C12.7272 27.351 12.8236 27.3601 12.8318 27.3848C12.8483 27.434 14.9349 27.434 14.9513 27.3848C14.9595 27.3602 15.0538 27.351 15.2987 27.351C15.5725 27.351 15.6376 27.3435 15.6503 27.3105C15.6626 27.2785 15.7189 27.27 15.9194 27.27C16.1269 27.27 16.1731 27.2626 16.1731 27.2295C16.1731 27.1971 16.2136 27.189 16.3756 27.189C16.52 27.189 16.5781 27.1793 16.5781 27.1551C16.5781 27.1317 16.6329 27.1204 16.7564 27.1184C16.8632 27.1168 16.9427 27.1026 16.9547 27.0832C16.9657 27.0653 17.0258 27.05 17.0882 27.0492C17.1506 27.0483 17.2184 27.0308 17.2389 27.0103C17.2594 26.9898 17.3248 26.973 17.3842 26.973C17.4442 26.973 17.5102 26.955 17.5327 26.9325C17.5554 26.9098 17.6214 26.892 17.6831 26.892C17.7628 26.892 17.7931 26.8809 17.7931 26.8515C17.7931 26.8215 17.8246 26.811 17.9146 26.811C18.0045 26.811 18.0361 26.8005 18.0361 26.7705C18.0361 26.7413 18.0661 26.73 18.1441 26.73C18.22 26.73 18.2521 26.7185 18.2521 26.6912C18.2521 26.6616 18.2755 26.6562 18.3506 26.6684C18.4213 26.6799 18.4576 26.673 18.4789 26.6439C18.4952 26.6217 18.5541 26.5949 18.6098 26.5845C18.6655 26.5741 18.7111 26.554 18.7111 26.5398C18.7111 26.5256 18.7475 26.514 18.7921 26.514C18.8461 26.514 18.8731 26.5005 18.8731 26.4735C18.8731 26.4443 18.9031 26.433 18.9811 26.433C19.0591 26.433 19.0891 26.4217 19.0891 26.3925C19.0891 26.367 19.1148 26.352 19.1585 26.352C19.1967 26.352 19.2461 26.3338 19.2684 26.3115C19.2907 26.2892 19.3393 26.271 19.3764 26.271C19.4135 26.271 19.4621 26.2528 19.4844 26.2305C19.5067 26.2082 19.5484 26.19 19.577 26.19C19.6056 26.19 19.6291 26.1792 19.6291 26.1659C19.6291 26.1527 19.6594 26.1342 19.6966 26.1249C19.7337 26.1156 19.7641 26.096 19.7641 26.0815C19.7641 26.0669 19.8005 26.055 19.8451 26.055C19.8991 26.055 19.9261 26.0415 19.9261 26.0145C19.9261 25.9875 19.9531 25.974 20.0071 25.974C20.0611 25.974 20.0881 25.9605 20.0881 25.9335C20.0881 25.9088 20.1132 25.893 20.1527 25.893C20.1882 25.893 20.2243 25.8748 20.2328 25.8525C20.2414 25.8302 20.2791 25.812 20.3167 25.812C20.3543 25.812 20.3851 25.8001 20.3851 25.7855C20.3851 25.771 20.4185 25.7509 20.4593 25.7408C20.5002 25.7308 20.5603 25.6941 20.593 25.6593C20.6257 25.6245 20.6774 25.596 20.7078 25.596C20.7389 25.596 20.7631 25.5783 20.7631 25.5555C20.7631 25.5285 20.7901 25.515 20.8441 25.515C20.8981 25.515 20.9251 25.5015 20.9251 25.4745C20.9251 25.4517 20.9492 25.434 20.9803 25.434C21.0108 25.434 21.063 25.4045 21.0965 25.3684C21.1299 25.3323 21.1901 25.2945 21.2302 25.2845C21.2703 25.2744 21.3031 25.2553 21.3031 25.2421C21.3031 25.2288 21.3213 25.218 21.3436 25.218C21.3658 25.218 21.3841 25.1998 21.3841 25.1775C21.3841 25.1523 21.4095 25.137 21.4516 25.137C21.4936 25.137 21.5191 25.1217 21.5191 25.0965C21.5191 25.0742 21.5377 25.056 21.5604 25.056C21.5832 25.056 21.6087 25.0378 21.6173 25.0155C21.6258 24.9932 21.6632 24.975 21.7003 24.975C21.7492 24.975 21.7635 24.9639 21.7523 24.9345C21.7417 24.907 21.7537 24.894 21.7899 24.894C21.8191 24.894 21.8431 24.8832 21.8431 24.8699C21.8431 24.8567 21.8734 24.8382 21.9106 24.8289C21.9477 24.8196 21.9781 24.8 21.9781 24.7855C21.9781 24.7709 21.9963 24.759 22.0186 24.759C22.0408 24.759 22.0591 24.7408 22.0591 24.7185C22.0591 24.6962 22.0773 24.678 22.0996 24.678C22.1218 24.678 22.1401 24.6598 22.1401 24.6375C22.1401 24.6123 22.1655 24.597 22.2076 24.597C22.2496 24.597 22.2751 24.5817 22.2751 24.5565C22.2751 24.5342 22.2933 24.516 22.3156 24.516C22.3378 24.516 22.3561 24.5039 22.3561 24.489C22.3561 24.4742 22.3716 24.462 22.3906 24.462C22.4293 24.462 22.5181 24.3678 22.5181 24.3267C22.5181 24.312 22.5353 24.3 22.5565 24.3C22.5776 24.3 22.6313 24.2636 22.6759 24.219C22.7204 24.1745 22.77 24.138 22.786 24.138C22.802 24.138 22.8151 24.1198 22.8151 24.0975C22.8151 24.0752 22.8341 24.057 22.8575 24.057C22.906 24.057 22.9771 23.994 22.9771 23.9509C22.9771 23.935 22.9953 23.922 23.0176 23.922C23.0398 23.922 23.0581 23.9038 23.0581 23.8815C23.0581 23.8592 23.0763 23.841 23.0986 23.841C23.1208 23.841 23.1391 23.8228 23.1391 23.8005C23.1391 23.7782 23.1573 23.76 23.1796 23.76C23.2018 23.76 23.2201 23.7418 23.2201 23.7195C23.2201 23.6943 23.2455 23.679 23.2876 23.679C23.3247 23.679 23.3551 23.6669 23.3551 23.652C23.3551 23.6372 23.3424 23.625 23.327 23.625C23.3108 23.625 23.3136 23.609 23.3337 23.5872C23.3529 23.5664 23.3726 23.5603 23.3775 23.5737C23.3923 23.6134 23.4361 23.6013 23.4361 23.5575C23.4361 23.5352 23.4543 23.517 23.4766 23.517C23.4988 23.517 23.5171 23.5039 23.5171 23.4879C23.5171 23.4499 23.747 23.22 23.7849 23.22C23.8009 23.22 23.8141 23.2079 23.8141 23.193C23.8141 23.1782 23.801 23.166 23.785 23.166C23.769 23.166 23.7923 23.1296 23.8369 23.085C23.8814 23.0405 23.931 23.004 23.947 23.004C23.963 23.004 23.9761 22.9858 23.9761 22.9635C23.9761 22.9412 23.9943 22.923 24.0166 22.923C24.0388 22.923 24.0571 22.9048 24.0571 22.8825C24.0571 22.8602 24.0753 22.842 24.0976 22.842C24.1198 22.842 24.1381 22.8238 24.1381 22.8015C24.1381 22.7792 24.1563 22.761 24.1786 22.761C24.2008 22.761 24.2191 22.7428 24.2191 22.7205C24.2191 22.6982 24.2312 22.68 24.2461 22.68C24.2609 22.68 24.2731 22.6618 24.2731 22.6395C24.2731 22.6172 24.2913 22.599 24.3136 22.599C24.3358 22.599 24.3541 22.5808 24.3541 22.5585C24.3541 22.5362 24.366 22.518 24.3805 22.518C24.3951 22.518 24.4146 22.4876 24.424 22.4505C24.4333 22.4134 24.4578 22.383 24.4785 22.383C24.4992 22.383 24.5161 22.3648 24.5161 22.3425C24.5161 22.3202 24.5343 22.302 24.5566 22.302C24.5788 22.302 24.5971 22.2882 24.5971 22.2714C24.5971 22.2545 24.626 22.2139 24.6614 22.1811C24.6968 22.1483 24.7341 22.0952 24.7442 22.0632C24.7544 22.0312 24.774 22.005 24.7879 22.005C24.8017 22.005 24.8131 21.9868 24.8131 21.9645C24.8131 21.9422 24.8313 21.924 24.8536 21.924C24.8758 21.924 24.8941 21.9058 24.8941 21.8835C24.8941 21.8612 24.9054 21.843 24.9192 21.843C24.9331 21.843 24.9527 21.8168 24.9629 21.7848C24.9731 21.7528 25.0103 21.6997 25.0457 21.6669C25.0811 21.6342 25.1101 21.5931 25.1101 21.5758C25.1101 21.5585 25.1283 21.5373 25.1506 21.5288C25.1728 21.5202 25.1911 21.4841 25.1911 21.4486C25.1911 21.4092 25.2068 21.384 25.2316 21.384C25.2538 21.384 25.2721 21.3658 25.2721 21.3435C25.2721 21.3212 25.284 21.303 25.2985 21.303C25.3131 21.303 25.3324 21.2735 25.3415 21.2375C25.3505 21.2014 25.3751 21.1653 25.396 21.1573C25.4169 21.1493 25.4341 21.1241 25.4341 21.1013C25.4341 21.0786 25.446 21.06 25.4605 21.06C25.4751 21.06 25.4946 21.0296 25.504 20.9925C25.5133 20.9554 25.5304 20.925 25.5421 20.925C25.5537 20.925 25.5708 20.8946 25.5802 20.8575C25.5895 20.8204 25.609 20.79 25.6236 20.79C25.6381 20.79 25.6501 20.7657 25.6501 20.736C25.6501 20.706 25.6681 20.682 25.6906 20.682C25.7135 20.682 25.7311 20.6578 25.7311 20.6261C25.7311 20.5953 25.7493 20.5519 25.7716 20.5296C25.7938 20.5074 25.8121 20.4657 25.8121 20.4371C25.8121 20.4084 25.8303 20.385 25.8526 20.385C25.8777 20.385 25.8931 20.3595 25.8931 20.3175C25.8931 20.2804 25.9052 20.25 25.9201 20.25C25.9349 20.25 25.9471 20.2314 25.9471 20.2087C25.9471 20.1859 25.9653 20.1603 25.9876 20.1518C26.0126 20.1421 26.0281 20.101 26.0281 20.0438C26.0281 19.9865 26.0435 19.9454 26.0686 19.9358C26.0908 19.9272 26.1091 19.9085 26.1091 19.8942C26.1091 19.8799 26.1273 19.8499 26.1496 19.8276C26.1718 19.8054 26.1901 19.7637 26.1901 19.7351C26.1901 19.7064 26.2014 19.683 26.2152 19.683C26.2291 19.683 26.2489 19.6562 26.2593 19.6235C26.2697 19.5908 26.2948 19.5474 26.3151 19.5271C26.3354 19.5068 26.3521 19.4546 26.3521 19.4111C26.3521 19.3676 26.3632 19.332 26.3769 19.332C26.3906 19.332 26.4098 19.2956 26.4196 19.251C26.4293 19.2065 26.4485 19.17 26.4622 19.17C26.4759 19.17 26.4871 19.1393 26.4871 19.1017C26.4871 19.0641 26.5053 19.0263 26.5276 19.0178C26.554 19.0076 26.5681 18.9656 26.5681 18.8971C26.5681 18.8217 26.5795 18.792 26.6086 18.792C26.634 18.792 26.6491 18.7663 26.6491 18.7226C26.6491 18.6844 26.6673 18.6349 26.6896 18.6126C26.7118 18.5904 26.7301 18.5366 26.7301 18.4931C26.7301 18.4496 26.7411 18.414 26.7547 18.414C26.7682 18.414 26.7879 18.3624 26.7985 18.2993C26.809 18.2362 26.829 18.1773 26.8428 18.1685C26.8566 18.1597 26.8731 18.1112 26.8795 18.0607C26.8859 18.0101 26.9035 17.9647 26.9186 17.9597C26.9337 17.9546 26.9461 17.9021 26.9461 17.8428C26.9461 17.7831 26.9641 17.7171 26.9866 17.6946C27.0088 17.6724 27.0271 17.6177 27.0271 17.5731C27.0271 17.5286 27.0453 17.4739 27.0676 17.4516C27.0898 17.4294 27.1081 17.3647 27.1081 17.308C27.1081 17.2412 27.1223 17.1993 27.1486 17.1892C27.1772 17.1782 27.1891 17.1335 27.1891 17.0359C27.1891 16.9494 27.2041 16.8831 27.2296 16.8576C27.2531 16.8341 27.2701 16.7681 27.2701 16.6998C27.2701 16.6353 27.2826 16.5783 27.2979 16.5732C27.3132 16.5681 27.3333 16.4577 27.3424 16.328C27.3516 16.1982 27.3694 16.092 27.3821 16.092C27.3947 16.092 27.4051 15.9874 27.4051 15.8596C27.4051 15.6735 27.4125 15.6301 27.4422 15.6415C27.4626 15.6493 27.4789 15.6415 27.4784 15.6241C27.478 15.6067 27.4795 15.468 27.4818 15.3158C27.4853 15.0875 27.4933 15.039 27.5273 15.039C27.5638 15.039 27.5676 14.8829 27.561 13.671C27.5552 12.606 27.5461 12.3005 27.5198 12.2918C27.4956 12.2837 27.4861 12.1976 27.4861 11.9858C27.4861 11.7418 27.4791 11.691 27.4456 11.691C27.4127 11.691 27.4051 11.6478 27.4051 11.4637C27.4051 11.3388 27.3934 11.2325 27.3792 11.2275C27.3649 11.2226 27.3479 11.1399 27.3413 11.0439C27.3348 10.9479 27.3161 10.8649 27.2998 10.8594C27.2827 10.8537 27.2701 10.7824 27.2701 10.6917C27.2701 10.5874 27.2563 10.5201 27.2296 10.4934C27.2071 10.4709 27.1891 10.4049 27.1891 10.3449C27.1891 10.2849 27.171 10.2189 27.1486 10.1964C27.1257 10.1735 27.1081 10.1076 27.1081 10.0451C27.1081 9.97154 27.0944 9.92909 27.0676 9.91878C27.0392 9.90787 27.0271 9.86365 27.0271 9.77112C27.0271 9.67168 27.017 9.63901 26.9866 9.63901C26.9566 9.63901 26.9461 9.6075 26.9461 9.51751C26.9461 9.45068 26.9355 9.39601 26.9226 9.39601C26.9097 9.39601 26.8923 9.34463 26.8838 9.28185C26.8754 9.21905 26.8556 9.16335 26.8398 9.15808C26.824 9.15282 26.8111 9.11877 26.8111 9.0824C26.8111 9.04606 26.7928 9.00931 26.7706 9.00078C26.7441 8.99063 26.7301 8.94864 26.7301 8.88012C26.7301 8.80468 26.7186 8.77501 26.6896 8.77501C26.6603 8.77501 26.6491 8.74501 26.6491 8.66701C26.6491 8.589 26.6378 8.55901 26.6086 8.55901C26.5816 8.55901 26.5681 8.53201 26.5681 8.47801C26.5681 8.43346 26.5569 8.39701 26.5432 8.39701C26.5295 8.39701 26.5103 8.36056 26.5006 8.31601C26.4908 8.27146 26.4731 8.23501 26.4613 8.23501C26.4496 8.23501 26.4322 8.18641 26.4227 8.12701C26.4132 8.06761 26.3934 8.01901 26.3787 8.01901C26.3641 8.01901 26.3521 7.98825 26.3521 7.95067C26.3521 7.91306 26.3338 7.87531 26.3116 7.86678C26.2893 7.85822 26.2711 7.82215 26.2711 7.78662C26.2711 7.7472 26.2553 7.72201 26.2306 7.72201C26.2036 7.72201 26.1901 7.69501 26.1901 7.64101C26.1901 7.58701 26.1766 7.56001 26.1496 7.56001C26.1226 7.56001 26.1091 7.53301 26.1091 7.47901C26.1091 7.42501 26.0956 7.39801 26.0686 7.39801C26.0434 7.39801 26.0281 7.37252 26.0281 7.33051C26.0281 7.29338 26.0169 7.26301 26.0032 7.26301C25.9895 7.26301 25.9703 7.22656 25.9606 7.18201C25.9508 7.13746 25.9329 7.10101 25.9208 7.10101C25.9088 7.10101 25.8913 7.07063 25.882 7.03351C25.8726 6.99638 25.8531 6.96601 25.8385 6.96601C25.824 6.96601 25.8121 6.94171 25.8121 6.91201C25.8121 6.88201 25.794 6.85801 25.7716 6.85801C25.7464 6.85801 25.7311 6.83252 25.7311 6.79051C25.7311 6.74849 25.7157 6.72301 25.6906 6.72301C25.6636 6.72301 25.6501 6.69601 25.6501 6.64201C25.6501 6.58801 25.6366 6.56101 25.6096 6.56101C25.5873 6.56101 25.5691 6.54278 25.5691 6.52051C25.5691 6.49823 25.5569 6.48001 25.5421 6.48001C25.5272 6.48001 25.5151 6.44963 25.5151 6.41251C25.5151 6.3722 25.4996 6.34501 25.4767 6.34501C25.4556 6.34501 25.4303 6.30856 25.4206 6.26401C25.4108 6.21946 25.3916 6.18301 25.3779 6.18301C25.3642 6.18301 25.3531 6.16478 25.3531 6.14251C25.3531 6.12023 25.3348 6.10201 25.3126 6.10201C25.2874 6.10201 25.2721 6.07652 25.2721 6.03451C25.2721 5.99249 25.2567 5.96701 25.2316 5.96701C25.2093 5.96701 25.1911 5.94792 25.1911 5.92459C25.1911 5.87718 25.1283 5.80501 25.0871 5.80501C25.0724 5.80501 25.0523 5.76856 25.0426 5.72401C25.0328 5.67946 25.0136 5.64301 24.9999 5.64301C24.9862 5.64301 24.9751 5.62478 24.9751 5.60251C24.9751 5.58023 24.9568 5.56201 24.9346 5.56201C24.9123 5.56201 24.8941 5.54473 24.8941 5.52359C24.8941 5.50244 24.8576 5.44871 24.8131 5.40416C24.7685 5.35961 24.7321 5.3145 24.7321 5.30394C24.7321 5.29336 24.7031 5.25785 24.6677 5.22507C24.6323 5.19227 24.5951 5.13924 24.5849 5.10722C24.5747 5.0752 24.5551 5.04901 24.5412 5.04901C24.5274 5.04901 24.5161 5.03078 24.5161 5.00851C24.5161 4.98623 24.4978 4.96801 24.4756 4.96801C24.4533 4.96801 24.4351 4.94978 24.4351 4.92751C24.4351 4.90523 24.4229 4.88701 24.4081 4.88701C24.373 4.88701 24.2731 4.78703 24.2731 4.75201C24.2731 4.73716 24.2622 4.72501 24.249 4.72501C24.2357 4.72501 24.2173 4.69463 24.208 4.65751C24.1986 4.62038 24.173 4.59001 24.151 4.59001C24.129 4.59001 24.1111 4.57178 24.1111 4.54951C24.1111 4.52723 24.0989 4.50901 24.0841 4.50901C24.0692 4.50901 24.0571 4.49078 24.0571 4.46851C24.0571 4.44623 24.0388 4.42801 24.0166 4.42801C23.9943 4.42801 23.9761 4.40978 23.9761 4.38751C23.9761 4.36523 23.9578 4.34701 23.9356 4.34701C23.9133 4.34701 23.8951 4.32878 23.8951 4.30651C23.8951 4.28423 23.8768 4.26601 23.8546 4.26601C23.8323 4.26601 23.8141 4.24778 23.8141 4.22551C23.8141 4.20323 23.7958 4.18501 23.7736 4.18501C23.7513 4.18501 23.7331 4.17199 23.7331 4.15609C23.7331 4.11869 23.6644 4.05001 23.627 4.05001C23.6111 4.05001 23.5981 4.03178 23.5981 4.00951C23.5981 3.98723 23.5798 3.96901 23.5576 3.96901C23.5353 3.96901 23.5171 3.95078 23.5171 3.92851C23.5171 3.90623 23.4988 3.88801 23.4766 3.88801C23.4543 3.88801 23.4361 3.86978 23.4361 3.84751C23.4361 3.82523 23.4178 3.80701 23.3956 3.80701C23.3733 3.80701 23.3551 3.79391 23.3551 3.77793C23.3551 3.74015 23.2059 3.59101 23.1681 3.59101C23.1521 3.59101 23.1391 3.57278 23.1391 3.55051C23.1391 3.52823 23.1208 3.51001 23.0986 3.51001C23.0763 3.51001 23.0581 3.49786 23.0581 3.48301C23.0581 3.46816 23.0398 3.45601 23.0176 3.45601C22.9953 3.45601 22.9771 3.44386 22.9771 3.42901C22.9771 3.39507 22.8775 3.29401 22.8441 3.29401C22.8304 3.29401 22.7828 3.25756 22.7382 3.21301C22.6937 3.16846 22.6441 3.13201 22.6281 3.13201C22.6122 3.13201 22.5991 3.11378 22.5991 3.09151C22.5991 3.06923 22.5808 3.05101 22.5586 3.05101C22.5363 3.05101 22.5181 3.03886 22.5181 3.02401C22.5181 3.00916 22.4998 2.99701 22.4776 2.99701C22.4553 2.99701 22.4371 2.97902 22.4371 2.95702C22.4371 2.93504 22.4067 2.90942 22.3696 2.9001C22.3324 2.89079 22.3021 2.86625 22.3021 2.84559C22.3021 2.82491 22.2838 2.80801 22.2616 2.80801C22.2393 2.80801 22.2211 2.79586 22.2211 2.78101C22.2211 2.76616 22.2028 2.75401 22.1806 2.75401C22.1583 2.75401 22.1401 2.73578 22.1401 2.71351C22.1401 2.68651 22.1131 2.67301 22.0591 2.67301C22.0145 2.67301 21.9781 2.66099 21.9781 2.6463C21.9781 2.60524 21.8893 2.51101 21.8506 2.51101C21.8316 2.51101 21.8161 2.4991 21.8161 2.48452C21.8161 2.46997 21.7857 2.45042 21.7486 2.4411C21.7114 2.43179 21.6811 2.40725 21.6811 2.38659C21.6811 2.36591 21.6628 2.34901 21.6406 2.34901C21.6183 2.34901 21.6001 2.33686 21.6001 2.32201C21.6001 2.30716 21.5697 2.29501 21.5326 2.29501C21.4905 2.29501 21.4651 2.2797 21.4651 2.25451C21.4651 2.23202 21.4411 2.21401 21.4111 2.21401C21.3814 2.21401 21.3571 2.2021 21.3571 2.18752C21.3571 2.17297 21.3267 2.15342 21.2896 2.1441C21.2524 2.13479 21.2221 2.11025 21.2221 2.08959C21.2221 2.06891 21.2038 2.05201 21.1816 2.05201C21.1593 2.05201 21.1411 2.0401 21.1411 2.02552C21.1411 2.01097 21.1078 1.99069 21.0671 1.98046C21.0264 1.97025 20.9769 1.94573 20.9571 1.92594C20.9374 1.90618 20.9038 1.89001 20.8826 1.89001C20.8614 1.89001 20.8441 1.87786 20.8441 1.86301C20.8441 1.84816 20.8107 1.83503 20.7698 1.83387C20.729 1.83271 20.7108 1.82561 20.7293 1.81813C20.7919 1.79283 20.7636 1.75501 20.6821 1.75501C20.6375 1.75501 20.6011 1.7431 20.6011 1.72852C20.6011 1.71397 20.5707 1.69442 20.5336 1.6851C20.4964 1.67579 20.4661 1.65125 20.4661 1.63059C20.4661 1.60683 20.4362 1.59301 20.3851 1.59301C20.3311 1.59301 20.3041 1.57951 20.3041 1.55251C20.3041 1.52732 20.2786 1.51201 20.2366 1.51201C20.1994 1.51201 20.1691 1.50118 20.1691 1.48792C20.1691 1.47469 20.1358 1.4555 20.0951 1.44529C20.0544 1.43508 20.0135 1.41435 20.0041 1.39923C19.9947 1.38411 19.9552 1.36988 19.9161 1.36761C19.877 1.36537 19.8451 1.34833 19.8451 1.32976C19.8451 1.31121 19.8147 1.29601 19.7776 1.29601C19.7355 1.29601 19.7101 1.2807 19.7101 1.25551C19.7101 1.22851 19.6831 1.21501 19.6291 1.21501C19.5751 1.21501 19.5481 1.20151 19.5481 1.17451C19.5481 1.14902 19.5224 1.13401 19.4786 1.13401C19.4404 1.13401 19.391 1.11578 19.3687 1.09351C19.3464 1.07123 19.2926 1.05301 19.2491 1.05301C19.2056 1.05301 19.1701 1.04183 19.1701 1.02814C19.1701 1.01448 19.1336 0.995281 19.0891 0.985506C19.0445 0.975733 19.0081 0.956536 19.0081 0.942874C19.0081 0.929184 18.9608 0.918006 18.9029 0.918006C18.8344 0.918006 18.7924 0.903912 18.7823 0.877506C18.7737 0.855231 18.737 0.837006 18.7007 0.837006C18.6643 0.837006 18.6304 0.824559 18.6253 0.809358C18.6203 0.794157 18.5677 0.77388 18.5086 0.764268C18.4494 0.754683 18.3849 0.730653 18.3651 0.710916C18.3454 0.691152 18.2946 0.675006 18.2524 0.675006C18.2101 0.675006 18.1714 0.662559 18.1663 0.647358C18.1613 0.632157 18.1086 0.612069 18.0493 0.6027C17.99 0.593331 17.9337 0.573729 17.9242 0.559149C17.9146 0.544569 17.8448 0.526668 17.7689 0.519378C17.6931 0.512088 17.6311 0.495537 17.6311 0.482577C17.6311 0.469617 17.5764 0.459006 17.5096 0.459006C17.4196 0.459006 17.3881 0.448503 17.3881 0.418506C17.3881 0.387834 17.3548 0.378006 17.2511 0.378006C17.1654 0.378006 17.099 0.362859 17.0737 0.337506C17.0479 0.31164 16.9812 0.297006 16.8895 0.297006C16.7867 0.297006 16.7414 0.285477 16.7303 0.256506C16.7186 0.226158 16.67 0.216006 16.5365 0.216006C16.414 0.216006 16.3455 0.203316 16.3177 0.175506C16.289 0.146778 16.2189 0.135006 16.0766 0.135006C15.9663 0.135006 15.8761 0.124692 15.8761 0.112056C15.8761 0.0994474 15.7394 0.0808714 15.5723 0.0707464C15.4053 0.0606484 15.2645 0.0406144 15.2596 0.0261964C15.2449 -0.0163556 12.5281 -0.00882258 12.5279 0.0337564ZM12.6418 2.41753C12.6156 2.44715 12.5403 2.45701 12.3402 2.45701C12.1706 2.45701 12.0699 2.46781 12.0637 2.48665C12.0583 2.50293 11.9692 2.52291 11.8657 2.53101C11.7622 2.53914 11.6709 2.55596 11.6627 2.56844C11.6546 2.58091 11.5726 2.59436 11.4805 2.5983C11.3684 2.60313 11.3131 2.61666 11.3131 2.63926C11.3131 2.6625 11.2626 2.67301 11.1511 2.67301C11.025 2.67301 10.9891 2.682 10.9891 2.71351C10.9891 2.74461 10.9545 2.75401 10.8406 2.75401C10.7266 2.75401 10.6921 2.7634 10.6921 2.79451C10.6921 2.8245 10.6605 2.83501 10.5706 2.83501C10.4806 2.83501 10.4491 2.84551 10.4491 2.87551C10.4491 2.90475 10.4191 2.91601 10.3411 2.91601C10.2817 2.91601 10.2331 2.92762 10.2331 2.94179C10.2331 2.95597 10.1875 2.97595 10.1318 2.98618C10.0761 2.99641 10.0238 3.01518 10.0155 3.02789C10.0072 3.04058 9.94945 3.05298 9.88721 3.05543C9.81302 3.05832 9.77405 3.07228 9.77405 3.09593C9.77405 3.11802 9.74263 3.13201 9.69305 3.13201C9.63905 3.13201 9.61205 3.14551 9.61205 3.17251C9.61205 3.19721 9.58686 3.21301 9.54744 3.21301C9.51191 3.21301 9.47584 3.23123 9.46728 3.25351C9.45767 3.27859 9.41657 3.29401 9.35928 3.29401C9.30201 3.29401 9.26092 3.30942 9.25128 3.33451C9.24275 3.35678 9.205 3.37501 9.16739 3.37501C9.12981 3.37501 9.09905 3.38618 9.09905 3.39987C9.09905 3.41354 9.0626 3.43273 9.01805 3.44251C8.9735 3.45228 8.93705 3.47051 8.93705 3.48301C8.93705 3.49551 8.9006 3.51373 8.85605 3.52351C8.8115 3.53328 8.77505 3.55248 8.77505 3.56614C8.77505 3.57983 8.74468 3.59101 8.70755 3.59101C8.66554 3.59101 8.64005 3.60632 8.64005 3.63151C8.64005 3.65851 8.61305 3.67201 8.55905 3.67201C8.50505 3.67201 8.47805 3.68551 8.47805 3.71251C8.47805 3.73721 8.45286 3.75301 8.41344 3.75301C8.37791 3.75301 8.34184 3.77123 8.33328 3.79351C8.32475 3.81578 8.29915 3.83401 8.27639 3.83401C8.25366 3.83401 8.23505 3.84591 8.23505 3.86049C8.23505 3.87505 8.20468 3.89459 8.16755 3.90391C8.13043 3.91322 8.10005 3.93072 8.10005 3.94279C8.10005 3.95486 8.0636 3.97273 8.01905 3.98251C7.9745 3.99228 7.93805 4.01148 7.93805 4.02514C7.93805 4.03883 7.91983 4.05001 7.89755 4.05001C7.87528 4.05001 7.85705 4.06823 7.85705 4.09051C7.85705 4.1157 7.83157 4.13101 7.78955 4.13101C7.74754 4.13101 7.72205 4.14632 7.72205 4.17151C7.72205 4.194 7.69805 4.21201 7.66805 4.21201C7.63835 4.21201 7.61405 4.22391 7.61405 4.23849C7.61405 4.25305 7.58368 4.27259 7.54655 4.28191C7.50943 4.29122 7.47905 4.31577 7.47905 4.33642C7.47905 4.3571 7.46083 4.37401 7.43855 4.37401C7.41628 4.37401 7.39805 4.38616 7.39805 4.40101C7.39805 4.41586 7.36768 4.42801 7.33055 4.42801C7.28854 4.42801 7.26305 4.44332 7.26305 4.46851C7.26305 4.49078 7.24483 4.50901 7.22255 4.50901C7.20028 4.50901 7.18205 4.52723 7.18205 4.54951C7.18205 4.57178 7.16383 4.59001 7.14155 4.59001C7.11928 4.59001 7.10105 4.60135 7.10105 4.6152C7.10105 4.62905 7.07559 4.64846 7.04446 4.65834C7.01333 4.6682 6.94186 4.72371 6.88562 4.78165C6.82938 4.83959 6.76372 4.88701 6.73971 4.88701C6.71571 4.88701 6.69605 4.90523 6.69605 4.92751C6.69605 4.9527 6.67057 4.96801 6.62855 4.96801C6.59143 4.96801 6.56105 4.98113 6.56105 4.99714C6.56105 5.03507 6.33112 5.26501 6.29319 5.26501C6.27718 5.26501 6.26405 5.28323 6.26405 5.30551C6.26405 5.32778 6.24583 5.34601 6.22355 5.34601C6.20128 5.34601 6.18305 5.36423 6.18305 5.38651C6.18305 5.40878 6.16993 5.42701 6.15389 5.42701C6.11588 5.42701 5.80505 5.73783 5.80505 5.77585C5.80505 5.79188 5.79193 5.80501 5.77592 5.80501C5.73799 5.80501 5.50805 6.03494 5.50805 6.07287C5.50805 6.08888 5.48983 6.10201 5.46755 6.10201C5.44528 6.10201 5.42705 6.12023 5.42705 6.14251C5.42705 6.16478 5.40883 6.18301 5.38655 6.18301C5.36428 6.18301 5.34605 6.20123 5.34605 6.22351C5.34605 6.24578 5.32783 6.26401 5.30555 6.26401C5.28328 6.26401 5.26505 6.28223 5.26505 6.30451C5.26505 6.32678 5.2529 6.34501 5.23805 6.34501C5.2232 6.34501 5.21105 6.36323 5.21105 6.38551C5.21105 6.40778 5.19415 6.42601 5.17347 6.42601C5.15282 6.42601 5.12827 6.45638 5.11896 6.49351C5.10964 6.53063 5.09009 6.56101 5.07554 6.56101C5.06096 6.56101 5.04905 6.57923 5.04905 6.60151C5.04905 6.62378 5.03083 6.64201 5.00855 6.64201C4.98628 6.64201 4.96805 6.66023 4.96805 6.68251C4.96805 6.70478 4.94983 6.72301 4.92755 6.72301C4.90236 6.72301 4.88705 6.74849 4.88705 6.79051C4.88705 6.86111 4.84736 6.88233 4.82393 6.82426C4.81645 6.80571 4.80935 6.82393 4.80819 6.86476C4.80686 6.91109 4.79115 6.93901 4.76639 6.93901C4.74233 6.93901 4.73283 6.95486 4.7422 6.97929C4.75081 7.00173 4.73958 7.02649 4.71679 7.03523C4.69433 7.04385 4.66852 7.0804 4.65947 7.11645C4.65043 7.15252 4.63109 7.18201 4.61654 7.18201C4.60196 7.18201 4.59005 7.20023 4.59005 7.22251C4.59005 7.24478 4.57315 7.26301 4.55247 7.26301C4.53182 7.26301 4.50727 7.29338 4.49796 7.33051C4.48864 7.36763 4.46909 7.39801 4.45454 7.39801C4.43996 7.39801 4.42805 7.41494 4.42805 7.43562C4.42805 7.4563 4.40983 7.48022 4.38755 7.48878C4.36528 7.49731 4.34705 7.53063 4.34705 7.56281C4.34705 7.595 4.31811 7.64816 4.28271 7.68094C4.24732 7.71374 4.21006 7.76677 4.1999 7.79879C4.18973 7.83082 4.1701 7.85701 4.15625 7.85701C4.14239 7.85701 4.13105 7.87561 4.13105 7.89834C4.13105 7.9211 4.11283 7.9467 4.09055 7.95523C4.06828 7.96379 4.05005 7.99986 4.05005 8.03539C4.05005 8.07481 4.03426 8.10001 4.00955 8.10001C3.98436 8.10001 3.96905 8.12549 3.96905 8.16751C3.96905 8.20463 3.95788 8.23501 3.94419 8.23501C3.93053 8.23501 3.91133 8.27146 3.90155 8.31601C3.89178 8.36056 3.87391 8.39701 3.86184 8.39701C3.84977 8.39701 3.83227 8.42738 3.82296 8.46451C3.81364 8.50163 3.79409 8.53201 3.77954 8.53201C3.76496 8.53201 3.75305 8.55544 3.75305 8.58409C3.75305 8.61271 3.73688 8.65232 3.71712 8.67208C3.69733 8.69187 3.67281 8.74134 3.6626 8.78203C3.65237 8.82272 3.63209 8.85601 3.61754 8.85601C3.60296 8.85601 3.59105 8.88638 3.59105 8.92351C3.59105 8.96552 3.57575 8.99101 3.55055 8.99101C3.52382 8.99101 3.51005 9.01776 3.51005 9.06977C3.51005 9.11307 3.49712 9.15282 3.4813 9.15808C3.4655 9.16335 3.44569 9.21905 3.43726 9.28185C3.42884 9.34463 3.41237 9.39601 3.40065 9.39601C3.38893 9.39601 3.37133 9.43246 3.36155 9.47701C3.35178 9.52156 3.33258 9.55801 3.31892 9.55801C3.30523 9.55801 3.29405 9.59359 3.29405 9.63709C3.29405 9.68056 3.27583 9.73437 3.25355 9.75665C3.23128 9.77892 3.21305 9.82838 3.21305 9.86659C3.21305 9.9103 3.19804 9.93601 3.17255 9.93601C3.14345 9.93601 3.13205 9.96576 3.13205 10.0418C3.13205 10.0999 3.11912 10.1518 3.1033 10.1571C3.0875 10.1623 3.06769 10.218 3.05926 10.2809C3.05084 10.3436 3.03494 10.395 3.02395 10.395C3.01293 10.395 2.99797 10.4571 2.99068 10.5329C2.98339 10.6087 2.96538 10.6786 2.95064 10.6881C2.9359 10.6977 2.91722 10.7659 2.90912 10.8396C2.90099 10.9134 2.88101 10.9782 2.8647 10.9836C2.84801 10.9892 2.83505 11.0577 2.83505 11.1406C2.83505 11.2465 2.82369 11.2921 2.79455 11.3032C2.76396 11.315 2.75405 11.3644 2.75405 11.5049C2.75405 11.6523 2.74563 11.691 2.71355 11.691C2.68075 11.691 2.67305 11.7343 2.67305 11.9183C2.67305 12.0673 2.66223 12.1491 2.64157 12.156C2.62022 12.1631 2.6062 12.2962 2.59802 12.57C2.59138 12.7919 2.57518 12.9776 2.562 12.9825C2.52785 12.9953 2.53087 14.445 2.56505 14.445C2.5799 14.445 2.59205 14.4754 2.59205 14.5125C2.59205 14.5496 2.57688 14.5802 2.5583 14.5804C2.5329 14.5807 2.53247 14.5859 2.5565 14.6011C2.5768 14.6141 2.59127 14.7231 2.59624 14.9009C2.60172 15.0968 2.61436 15.1843 2.63855 15.1936C2.66312 15.203 2.67305 15.2789 2.67305 15.4575C2.67305 15.6555 2.68159 15.7115 2.71355 15.7238C2.74425 15.7356 2.75405 15.7853 2.75405 15.9292C2.75405 16.0799 2.7624 16.119 2.79455 16.119C2.82558 16.119 2.83505 16.1533 2.83505 16.2653C2.83505 16.3475 2.84804 16.4158 2.8647 16.4214C2.88101 16.4268 2.90099 16.4916 2.90912 16.5654C2.91722 16.6392 2.93517 16.7069 2.94899 16.7159C2.96285 16.7249 2.98091 16.7826 2.98914 16.8441C2.99741 16.9057 3.01317 16.956 3.02416 16.956C3.03518 16.956 3.05027 17.0193 3.0577 17.0966C3.06512 17.174 3.08489 17.2418 3.10163 17.2474C3.11837 17.253 3.13205 17.3051 3.13205 17.3632C3.13205 17.4393 3.14345 17.469 3.17255 17.469C3.19923 17.469 3.21305 17.4957 3.21305 17.5471C3.21305 17.5916 3.23047 17.6319 3.25355 17.6408C3.27918 17.6506 3.29405 17.692 3.29405 17.7536C3.29405 17.8071 3.31228 17.8691 3.33455 17.8914C3.35683 17.9136 3.37505 17.9553 3.37505 17.9839C3.37505 18.0126 3.38707 18.036 3.40173 18.036C3.41642 18.036 3.43618 18.0846 3.44569 18.144C3.45519 18.2034 3.47355 18.252 3.48651 18.252C3.49947 18.252 3.51005 18.2885 3.51005 18.333C3.51005 18.3776 3.52196 18.414 3.53654 18.414C3.55109 18.414 3.57064 18.4444 3.57996 18.4815C3.58927 18.5186 3.61382 18.549 3.63447 18.549C3.65823 18.549 3.67205 18.5788 3.67205 18.63C3.67205 18.684 3.68555 18.711 3.71255 18.711C3.73955 18.711 3.75305 18.738 3.75305 18.792C3.75305 18.8366 3.76496 18.873 3.77954 18.873C3.79409 18.873 3.81364 18.9034 3.82296 18.9405C3.83227 18.9776 3.84977 19.008 3.86184 19.008C3.87391 19.008 3.89178 19.0445 3.90155 19.089C3.91133 19.1336 3.93053 19.17 3.94419 19.17C3.95788 19.17 3.96905 19.2004 3.96905 19.2375C3.96905 19.2795 3.98436 19.305 4.00955 19.305C4.03205 19.305 4.05005 19.329 4.05005 19.359C4.05005 19.3887 4.06196 19.413 4.07654 19.413C4.09109 19.413 4.11064 19.4434 4.11996 19.4805C4.12927 19.5176 4.15382 19.548 4.17447 19.548C4.19612 19.548 4.21205 19.5754 4.21205 19.6126C4.21205 19.6481 4.23028 19.6842 4.25255 19.6928C4.27483 19.7013 4.29305 19.7269 4.29305 19.7497C4.29305 19.7724 4.3052 19.791 4.32005 19.791C4.3349 19.791 4.34705 19.8214 4.34705 19.8585C4.34705 19.9005 4.36236 19.926 4.38755 19.926C4.41455 19.926 4.42805 19.953 4.42805 20.007C4.42805 20.061 4.44155 20.088 4.46855 20.088C4.50068 20.088 4.50905 20.127 4.50905 20.277C4.50905 20.427 4.50068 20.466 4.46855 20.466C4.43753 20.466 4.42805 20.5003 4.42805 20.6123C4.42805 20.6927 4.41512 20.7628 4.3993 20.7681C4.3835 20.7733 4.36369 20.829 4.35526 20.8918C4.34684 20.9546 4.3294 21.006 4.31649 21.006C4.30361 21.006 4.29305 21.0598 4.29305 21.1256C4.29305 21.1947 4.27634 21.2619 4.25342 21.2848C4.2316 21.3066 4.21035 21.3743 4.20617 21.4352C4.20161 21.5017 4.18508 21.546 4.1648 21.546C4.14191 21.546 4.13105 21.5937 4.13105 21.6945C4.13105 21.8085 4.12166 21.843 4.09055 21.843C4.05945 21.843 4.05005 21.8775 4.05005 21.9915C4.05005 22.1055 4.04066 22.14 4.00955 22.14C3.97956 22.14 3.96905 22.1715 3.96905 22.2615C3.96905 22.3283 3.95844 22.383 3.94548 22.383C3.93252 22.383 3.91584 22.4463 3.90841 22.5236C3.90099 22.601 3.88122 22.6688 3.86448 22.6744C3.84774 22.68 3.83405 22.7373 3.83405 22.8018C3.83405 22.8684 3.8171 22.9361 3.79485 22.9584C3.77328 22.9799 3.75268 23.0476 3.74906 23.1088C3.74493 23.1789 3.72948 23.22 3.70726 23.22C3.68258 23.22 3.67205 23.2644 3.67205 23.3685C3.67205 23.4825 3.66266 23.517 3.63155 23.517C3.60045 23.517 3.59105 23.5515 3.59105 23.6655C3.59105 23.7795 3.58166 23.814 3.55055 23.814C3.52056 23.814 3.51005 23.8455 3.51005 23.9355C3.51005 24.0023 3.4979 24.057 3.48305 24.057C3.4682 24.057 3.45605 24.1056 3.45605 24.165V24.273H3.63155C3.76955 24.273 3.80705 24.2643 3.80705 24.2325C3.80705 24.2033 3.83705 24.192 3.91505 24.192C3.97445 24.192 4.02305 24.1814 4.02305 24.1685C4.02305 24.1556 4.08038 24.1386 4.15041 24.1307C4.22048 24.1228 4.28223 24.103 4.28768 24.0867C4.29322 24.07 4.36158 24.057 4.4438 24.057C4.55579 24.057 4.59005 24.0475 4.59005 24.0165C4.59005 23.9847 4.62756 23.976 4.76555 23.976C4.90355 23.976 4.94105 23.9673 4.94105 23.9355C4.94105 23.904 4.97705 23.895 5.10305 23.895C5.25207 23.895 5.31317 23.8649 5.2313 23.8319C5.21276 23.8244 5.26033 23.8173 5.33706 23.8161C5.41472 23.815 5.48105 23.8005 5.4867 23.7836C5.49229 23.7668 5.56011 23.7471 5.63744 23.7396C5.71479 23.7322 5.77805 23.7171 5.77805 23.7061C5.77805 23.695 5.8388 23.6779 5.91305 23.668C5.9873 23.6582 6.04805 23.6384 6.04805 23.6241C6.04805 23.6098 6.11488 23.598 6.19655 23.598C6.31055 23.598 6.34505 23.5886 6.34505 23.5575C6.34505 23.5264 6.37956 23.517 6.49355 23.517C6.60755 23.517 6.64205 23.5076 6.64205 23.4765C6.64205 23.4455 6.67632 23.436 6.78831 23.436C6.87053 23.436 6.93889 23.423 6.94443 23.4064C6.94988 23.3901 7.01468 23.3701 7.08845 23.3619C7.16221 23.3538 7.2292 23.3371 7.23732 23.3246C7.24542 23.3122 7.30004 23.2959 7.35869 23.2884C7.41733 23.2809 7.46942 23.2624 7.47444 23.2474C7.47946 23.2323 7.54388 23.22 7.61759 23.22C7.72486 23.22 7.76377 23.2331 7.81245 23.2856C7.8459 23.3217 7.90609 23.3595 7.94618 23.3696C7.98625 23.3796 8.01905 23.3974 8.01905 23.409C8.01905 23.4206 8.04943 23.4378 8.08655 23.4471C8.12368 23.4564 8.15405 23.476 8.15405 23.4905C8.15405 23.5051 8.17266 23.517 8.19539 23.517C8.21815 23.517 8.24375 23.5352 8.25228 23.5575C8.26084 23.5798 8.29691 23.598 8.33244 23.598C8.36798 23.598 8.39705 23.6102 8.39705 23.625C8.39705 23.6399 8.41528 23.652 8.43755 23.652C8.45983 23.652 8.47805 23.6687 8.47805 23.6891C8.47805 23.7114 8.5209 23.733 8.58605 23.7434C8.64545 23.7529 8.69405 23.7717 8.69405 23.7852C8.69405 23.7987 8.7305 23.8177 8.77505 23.8275C8.8196 23.8373 8.85605 23.8552 8.85605 23.8672C8.85605 23.8793 8.88643 23.8968 8.92355 23.9061C8.96068 23.9154 8.99105 23.935 8.99105 23.9495C8.99105 23.9641 9.03053 23.977 9.0788 23.9781C9.12708 23.9793 9.15138 23.9864 9.1328 23.9939C9.06555 24.021 9.10127 24.057 9.19547 24.057C9.24853 24.057 9.31014 24.0752 9.33242 24.0975C9.35469 24.1198 9.4085 24.138 9.45197 24.138C9.49547 24.138 9.53105 24.1502 9.53105 24.165C9.53105 24.1799 9.54966 24.192 9.57239 24.192C9.59515 24.192 9.62075 24.2102 9.62928 24.2325C9.63935 24.2587 9.6812 24.273 9.74803 24.273C9.80475 24.273 9.86942 24.2912 9.89169 24.3135C9.91397 24.3358 9.96381 24.354 10.0025 24.354C10.0411 24.354 10.0797 24.3722 10.0883 24.3945C10.0984 24.4209 10.1404 24.435 10.2089 24.435C10.2844 24.435 10.3141 24.4465 10.3141 24.4755C10.3141 24.5055 10.3456 24.516 10.4356 24.516C10.5024 24.516 10.5571 24.5273 10.5571 24.5411C10.5571 24.5548 10.6239 24.5745 10.7056 24.5847C10.7872 24.5949 10.8541 24.6124 10.8541 24.6237C10.8541 24.6349 10.9173 24.6502 10.9947 24.6576C11.072 24.6651 11.1398 24.6848 11.1454 24.7016C11.151 24.7183 11.2083 24.732 11.2729 24.732C11.3412 24.732 11.4071 24.7489 11.4307 24.7725C11.4585 24.8003 11.5269 24.813 11.6486 24.813C11.7883 24.813 11.8261 24.8216 11.8261 24.8535C11.8261 24.8863 11.8696 24.894 12.0556 24.894C12.2416 24.894 12.2851 24.9017 12.2851 24.9345C12.2851 24.9678 12.3331 24.975 12.5551 24.975C12.777 24.975 12.8251 24.9822 12.8251 25.0155C12.8251 25.0378 12.8433 25.056 12.8656 25.056C12.8878 25.056 12.9061 25.0378 12.9061 25.0155C12.9061 24.968 12.9777 24.9605 12.993 25.0065C13.008 25.0512 14.7213 25.0508 14.7362 25.0061C14.7433 24.9849 14.8529 24.975 15.0818 24.975C15.3618 24.975 15.4171 24.9683 15.4171 24.9345C15.4171 24.901 15.4681 24.894 15.7141 24.894C15.9601 24.894 16.0111 24.887 16.0111 24.8535C16.0111 24.8211 16.0516 24.813 16.2136 24.813C16.4 24.813 16.4818 24.7801 16.3688 24.7506C16.3428 24.7438 16.3904 24.7369 16.4746 24.7351C16.5691 24.7332 16.6328 24.7191 16.6412 24.6983C16.6521 24.6713 16.6552 24.6713 16.6569 24.6983C16.66 24.7465 16.7131 24.7402 16.7131 24.6915C16.7131 24.6623 16.7431 24.651 16.8211 24.651C16.8805 24.651 16.9291 24.6404 16.9291 24.6276C16.9291 24.6147 16.9794 24.5974 17.0409 24.5891C17.1025 24.5809 17.163 24.558 17.1755 24.5383C17.1928 24.5111 17.1983 24.5138 17.1986 24.5498C17.1989 24.5757 17.2112 24.597 17.2261 24.597C17.2409 24.597 17.2531 24.5788 17.2531 24.5565C17.2531 24.5318 17.2782 24.516 17.3177 24.516C17.3532 24.516 17.3893 24.4978 17.3978 24.4755C17.408 24.4489 17.4502 24.435 17.5202 24.435C17.5993 24.435 17.6303 24.4227 17.6395 24.3878C17.6512 24.3427 17.652 24.3427 17.6549 24.3878C17.6587 24.4452 17.7121 24.4515 17.7121 24.3945C17.7121 24.3698 17.7372 24.354 17.7767 24.354C17.8122 24.354 17.8483 24.3358 17.8568 24.3135C17.8671 24.2868 17.9094 24.273 17.9812 24.273C18.0599 24.273 18.0901 24.2618 18.0901 24.2325C18.0901 24.2041 18.1187 24.192 18.1859 24.192C18.2548 24.192 18.3002 24.1719 18.3478 24.1206C18.3984 24.0661 18.4141 24.0597 18.4141 24.0936C18.4141 24.118 18.4262 24.138 18.4411 24.138C18.4559 24.138 18.4681 24.1198 18.4681 24.0975C18.4681 24.0728 18.4932 24.057 18.5327 24.057C18.5682 24.057 18.6043 24.0388 18.6128 24.0165C18.6214 23.9942 18.6591 23.976 18.6967 23.976C18.7395 23.976 18.7651 23.9608 18.7651 23.9355C18.7651 23.9085 18.7921 23.895 18.8461 23.895C18.9001 23.895 18.9271 23.8815 18.9271 23.8545C18.9271 23.8298 18.9522 23.814 18.9917 23.814C19.0272 23.814 19.0633 23.7958 19.0718 23.7735C19.0804 23.7512 19.1181 23.733 19.1557 23.733C19.1933 23.733 19.2241 23.7209 19.2241 23.706C19.2241 23.6912 19.2427 23.679 19.2654 23.679C19.2882 23.679 19.3137 23.6608 19.3223 23.6385C19.3308 23.6162 19.3669 23.598 19.4024 23.598C19.4419 23.598 19.4671 23.5822 19.4671 23.5575C19.4671 23.5323 19.4925 23.517 19.5346 23.517C19.5766 23.517 19.6021 23.5017 19.6021 23.4765C19.6021 23.4495 19.6291 23.436 19.6831 23.436C19.7371 23.436 19.7641 23.4225 19.7641 23.3955C19.7641 23.3732 19.7831 23.355 19.8065 23.355C19.8298 23.355 19.8658 23.3398 19.8866 23.3213C19.9633 23.2525 19.9947 23.2303 20.0408 23.2127C20.0668 23.2028 20.0881 23.1822 20.0881 23.1668C20.0881 23.1515 20.1184 23.139 20.1556 23.139C20.1976 23.139 20.2231 23.1237 20.2231 23.0985C20.2231 23.0762 20.2361 23.058 20.252 23.058C20.2679 23.058 20.2991 23.0398 20.3214 23.0175C20.3437 22.9952 20.3854 22.977 20.414 22.977C20.4426 22.977 20.4661 22.964 20.4661 22.9481C20.4661 22.9051 20.5371 22.842 20.5856 22.842C20.609 22.842 20.6281 22.8238 20.6281 22.8015C20.6281 22.7763 20.6535 22.761 20.6956 22.761C20.7376 22.761 20.7631 22.7457 20.7631 22.7205C20.7631 22.6953 20.7885 22.68 20.8306 22.68C20.9012 22.68 20.9224 22.6403 20.8643 22.6169C20.8441 22.6088 20.8496 22.6024 20.8778 22.6011C20.9038 22.6 20.9251 22.5871 20.9251 22.5725C20.9251 22.558 20.9554 22.5384 20.9926 22.5291C21.0297 22.5198 21.0601 22.4952 21.0601 22.4746C21.0601 22.4539 21.0783 22.437 21.1006 22.437C21.1228 22.437 21.1411 22.4188 21.1411 22.3965C21.1411 22.3742 21.1593 22.356 21.1816 22.356C21.2038 22.356 21.2221 22.3439 21.2221 22.329C21.2221 22.3142 21.2524 22.302 21.2896 22.302C21.3602 22.302 21.3814 22.2623 21.3233 22.2389C21.3031 22.2308 21.3086 22.2244 21.3368 22.2231C21.3628 22.222 21.3841 22.2028 21.3841 22.1805C21.3841 22.1582 21.3972 22.14 21.4131 22.14C21.4291 22.14 21.4777 22.1045 21.5211 22.0611C21.5646 22.0177 21.6001 21.9691 21.6001 21.9531C21.6001 21.9371 21.6259 21.924 21.6576 21.924C21.7134 21.924 21.8971 21.7568 21.8971 21.7061C21.8971 21.6923 21.9153 21.681 21.9376 21.681C21.9598 21.681 21.9781 21.6628 21.9781 21.6405C21.9781 21.6182 21.9911 21.6 22.007 21.6C22.0229 21.6 22.0541 21.5818 22.0764 21.5595C22.0987 21.5372 22.1039 21.519 22.088 21.519C22.0216 21.519 22.0653 21.4648 22.1333 21.4629C22.1742 21.4617 22.1924 21.4546 22.1738 21.4471C22.1325 21.4304 22.129 21.384 22.1691 21.384C22.2138 21.384 22.3561 21.2315 22.3561 21.1836C22.3561 21.1602 22.3682 21.141 22.3831 21.141C22.3979 21.141 22.4587 21.0924 22.5181 21.033C22.5775 20.9736 22.6382 20.925 22.6531 20.925C22.6679 20.925 22.6801 20.8946 22.6801 20.8575C22.6801 20.8204 22.6922 20.79 22.7071 20.79C22.7219 20.79 22.7341 20.7745 22.7341 20.7555C22.7341 20.7365 22.7689 20.6905 22.8115 20.6531C22.854 20.6157 22.8974 20.5584 22.9078 20.5256C22.9182 20.4928 22.938 20.466 22.9519 20.466C22.9657 20.466 22.9771 20.4478 22.9771 20.4255C22.9771 20.4032 22.9953 20.385 23.0176 20.385C23.0398 20.385 23.0581 20.3668 23.0581 20.3445C23.0581 20.3222 23.0689 20.304 23.0821 20.304C23.0954 20.304 23.1138 20.2736 23.1232 20.2365C23.1325 20.1994 23.152 20.169 23.1666 20.169C23.1811 20.169 23.1931 20.1508 23.1931 20.1285C23.1931 20.1062 23.21 20.088 23.2306 20.088C23.2513 20.088 23.2758 20.0576 23.2852 20.0205C23.2945 19.9834 23.314 19.953 23.3286 19.953C23.3431 19.953 23.3551 19.9287 23.3551 19.899C23.3551 19.869 23.3731 19.845 23.3956 19.845C23.4207 19.845 23.4361 19.8195 23.4361 19.7775C23.4361 19.7355 23.4514 19.71 23.4766 19.71C23.4988 19.71 23.5171 19.6918 23.5171 19.6695C23.5171 19.6472 23.5282 19.629 23.5419 19.629C23.5556 19.629 23.5748 19.5926 23.5846 19.548C23.5943 19.5035 23.6122 19.467 23.6243 19.467C23.6363 19.467 23.6538 19.4366 23.6632 19.3995C23.6725 19.3624 23.692 19.332 23.7066 19.332C23.7211 19.332 23.7331 19.3138 23.7331 19.2915C23.7331 19.2692 23.7513 19.251 23.7736 19.251C23.8006 19.251 23.8141 19.224 23.8141 19.17C23.8141 19.116 23.8276 19.089 23.8546 19.089C23.8816 19.089 23.8951 19.062 23.8951 19.008C23.8951 18.9635 23.9059 18.927 23.9191 18.927C23.9324 18.927 23.9508 18.8966 23.9602 18.8595C23.9695 18.8224 23.989 18.792 24.0036 18.792C24.0181 18.792 24.0301 18.7613 24.0301 18.7237C24.0301 18.6861 24.0483 18.6483 24.0706 18.6398C24.0928 18.6312 24.1111 18.5948 24.1111 18.5588C24.1111 18.5228 24.1293 18.4863 24.1516 18.4778C24.1738 18.4692 24.1921 18.4331 24.1921 18.3976C24.1921 18.3582 24.2078 18.333 24.2326 18.333C24.2616 18.333 24.2731 18.3033 24.2731 18.2279C24.2731 18.1594 24.2871 18.1174 24.3136 18.1072C24.3358 18.0987 24.3541 18.061 24.3541 18.0233C24.3541 17.9858 24.3654 17.955 24.3794 17.955C24.3933 17.955 24.4129 17.9003 24.423 17.8335C24.433 17.7667 24.452 17.712 24.4651 17.712C24.4783 17.712 24.4891 17.6813 24.4891 17.6437C24.4891 17.6061 24.5073 17.5683 24.5296 17.5598C24.556 17.5496 24.5701 17.5076 24.5701 17.4391C24.5701 17.3637 24.5815 17.334 24.6106 17.334C24.6398 17.334 24.6511 17.3039 24.6511 17.2252C24.6511 17.1533 24.6648 17.111 24.6916 17.1008C24.718 17.0906 24.7321 17.0486 24.7321 16.9801C24.7321 16.9223 24.7433 16.875 24.7571 16.875C24.7709 16.875 24.7905 16.8082 24.8007 16.7265C24.8109 16.6448 24.8285 16.578 24.8398 16.578C24.8511 16.578 24.866 16.5101 24.8729 16.427C24.8798 16.344 24.8979 16.268 24.9132 16.2583C24.9286 16.2485 24.9466 16.1622 24.9534 16.0665C24.9604 15.9677 24.9794 15.888 24.9974 15.8821C25.0175 15.8754 25.0291 15.8035 25.0291 15.6848C25.0291 15.5368 25.0375 15.498 25.0696 15.498C25.1031 15.498 25.1101 15.447 25.1101 15.201C25.1101 14.955 25.117 14.904 25.1506 14.904C25.186 14.904 25.1911 14.7543 25.1911 13.7189C25.1911 12.6904 25.1857 12.5317 25.1506 12.5182C25.1181 12.5058 25.1101 12.446 25.1101 12.2164C25.1101 11.998 25.1005 11.9206 25.0696 11.8896C25.0415 11.8616 25.0291 11.7927 25.0291 11.665C25.0291 11.5261 25.0191 11.477 24.9886 11.4652C24.9583 11.4536 24.9481 11.4055 24.9481 11.2756C24.9481 11.1782 24.9356 11.0974 24.9198 11.0921C24.9042 11.0869 24.8843 11.013 24.8755 10.9278C24.8667 10.8427 24.8504 10.773 24.8394 10.773C24.8283 10.773 24.811 10.7183 24.801 10.6515C24.7909 10.5847 24.7713 10.53 24.7574 10.53C24.7434 10.53 24.7321 10.4632 24.7321 10.3815C24.7321 10.2675 24.7227 10.233 24.6916 10.233C24.6623 10.233 24.6511 10.203 24.6511 10.125C24.6511 10.047 24.6398 10.017 24.6106 10.017C24.5815 10.017 24.5701 9.98733 24.5701 9.91189C24.5701 9.84337 24.556 9.80138 24.5296 9.79123C24.5073 9.7827 24.4891 9.74595 24.4891 9.70961C24.4891 9.67324 24.4761 9.6392 24.4603 9.63393C24.4445 9.62867 24.4247 9.57296 24.4163 9.51016C24.4078 9.44739 24.3914 9.39601 24.3797 9.39601C24.3679 9.39601 24.3503 9.35956 24.3406 9.31501C24.3308 9.27046 24.3116 9.23401 24.2979 9.23401C24.2842 9.23401 24.2731 9.19756 24.2731 9.15301C24.2731 9.09901 24.2596 9.07201 24.2326 9.07201C24.2045 9.07201 24.1921 9.04382 24.1921 8.9804C24.1921 8.92386 24.1766 8.88284 24.1516 8.87323C24.1293 8.8647 24.1111 8.82695 24.1111 8.78934C24.1111 8.7466 24.0959 8.72101 24.0706 8.72101C24.0436 8.72101 24.0301 8.69401 24.0301 8.64001C24.0301 8.58601 24.0166 8.55901 23.9896 8.55901C23.9644 8.55901 23.9491 8.53352 23.9491 8.49151C23.9491 8.45438 23.9369 8.42401 23.9221 8.42401C23.9072 8.42401 23.8951 8.38756 23.8951 8.34301C23.8951 8.28901 23.8816 8.26201 23.8546 8.26201C23.8323 8.26201 23.8141 8.24378 23.8141 8.22151C23.8141 8.19923 23.7958 8.18101 23.7736 8.18101C23.7466 8.18101 23.7331 8.15401 23.7331 8.10001C23.7331 8.04601 23.7196 8.01901 23.6926 8.01901C23.6678 8.01901 23.6521 7.99381 23.6521 7.9544C23.6521 7.91886 23.6338 7.88279 23.6116 7.87423C23.5893 7.8657 23.5711 7.8401 23.5711 7.81734C23.5711 7.79461 23.5589 7.77601 23.5441 7.77601C23.5292 7.77601 23.5171 7.74563 23.5171 7.70851C23.5171 7.66649 23.5017 7.64101 23.4766 7.64101C23.4514 7.64101 23.4361 7.61552 23.4361 7.57351C23.4361 7.53149 23.4207 7.50601 23.3956 7.50601C23.3733 7.50601 23.3551 7.48908 23.3551 7.4684C23.3551 7.44771 23.3368 7.42379 23.3146 7.41523C23.2923 7.4067 23.2741 7.36895 23.2741 7.33134C23.2741 7.2886 23.2589 7.26301 23.2336 7.26301C23.2113 7.26301 23.1931 7.25029 23.1931 7.23471C23.1931 7.21916 23.1644 7.17966 23.1293 7.14696C23.0942 7.11426 23.057 7.06018 23.0465 7.02676C23.036 6.99333 23.0161 6.96601 23.0022 6.96601C22.9884 6.96601 22.9771 6.94778 22.9771 6.92551C22.9771 6.90323 22.9588 6.88501 22.9366 6.88501C22.9143 6.88501 22.8961 6.86627 22.8961 6.84337C22.8961 6.79763 22.8719 6.76467 22.7408 6.63131C22.6925 6.58223 22.6531 6.53252 22.6531 6.52088C22.6531 6.50922 22.6227 6.47156 22.5856 6.43713C22.5484 6.40273 22.5181 6.36742 22.5181 6.35867C22.5181 6.33669 22.4755 6.28793 22.2953 6.10336C22.2099 6.01588 22.1401 5.9312 22.1401 5.91517C22.1401 5.89913 22.1218 5.88601 22.0996 5.88601C22.0773 5.88601 22.0591 5.86778 22.0591 5.84551C22.0591 5.82323 22.0408 5.80501 22.0186 5.80501C21.9963 5.80501 21.9781 5.78678 21.9781 5.76451C21.9781 5.74223 21.965 5.72401 21.949 5.72401C21.9112 5.72401 21.7621 5.57486 21.7621 5.53709C21.7621 5.5211 21.7438 5.50801 21.7216 5.50801C21.6993 5.50801 21.6811 5.48978 21.6811 5.46751C21.6811 5.44523 21.6628 5.42701 21.6406 5.42701C21.6183 5.42701 21.6001 5.40878 21.6001 5.38651C21.6001 5.36423 21.5818 5.34601 21.5596 5.34601C21.5373 5.34601 21.5191 5.32778 21.5191 5.30551C21.5191 5.28323 21.5053 5.26501 21.4884 5.26501C21.4715 5.26501 21.4309 5.23606 21.3981 5.20067C21.3653 5.16527 21.3123 5.12801 21.2803 5.11786C21.2482 5.10768 21.2221 5.08197 21.2221 5.0607C21.2221 5.03942 21.2038 5.02201 21.1816 5.02201C21.1593 5.02201 21.1411 5.00986 21.1411 4.99501C21.1411 4.98016 21.1228 4.96801 21.1006 4.96801C21.0783 4.96801 21.0601 4.94978 21.0601 4.92751C21.0601 4.90523 21.0463 4.88701 21.0294 4.88701C21.0125 4.88701 20.9719 4.85806 20.9391 4.82267C20.9063 4.78727 20.8533 4.75001 20.8213 4.73986C20.7892 4.72968 20.7631 4.71005 20.7631 4.6962C20.7631 4.68235 20.7448 4.67101 20.7226 4.67101C20.7003 4.67101 20.6821 4.65278 20.6821 4.63051C20.6821 4.60823 20.6638 4.59001 20.6416 4.59001C20.6193 4.59001 20.6011 4.57178 20.6011 4.54951C20.6011 4.52432 20.5756 4.50901 20.5336 4.50901C20.4915 4.50901 20.4661 4.4937 20.4661 4.46851C20.4661 4.44623 20.4478 4.42801 20.4256 4.42801C20.4033 4.42801 20.3851 4.41718 20.3851 4.40392C20.3851 4.39069 20.3547 4.37222 20.3176 4.36291C20.2804 4.35359 20.2501 4.33405 20.2501 4.31949C20.2501 4.30491 20.2315 4.29301 20.2087 4.29301C20.186 4.29301 20.1608 4.27589 20.1527 4.25494C20.1447 4.23401 20.1087 4.20947 20.0726 4.20042C20.0365 4.19138 20.0071 4.17205 20.0071 4.15749C20.0071 4.14291 19.9888 4.13101 19.9666 4.13101C19.9443 4.13101 19.9261 4.11278 19.9261 4.09051C19.9261 4.0658 19.9009 4.05001 19.8614 4.05001C19.8259 4.05001 19.7898 4.03178 19.7813 4.00951C19.7727 3.98723 19.7472 3.96901 19.7244 3.96901C19.7017 3.96901 19.6831 3.95818 19.6831 3.94492C19.6831 3.93169 19.6527 3.91322 19.6156 3.90391C19.5784 3.89459 19.5481 3.87602 19.5481 3.86263C19.5481 3.84926 19.5116 3.83028 19.4671 3.82051C19.4225 3.81073 19.3861 3.79286 19.3861 3.78079C19.3861 3.76872 19.3557 3.75122 19.3186 3.74191C19.2814 3.73259 19.2511 3.71305 19.2511 3.69849C19.2511 3.68391 19.2276 3.67201 19.199 3.67201C19.1704 3.67201 19.1287 3.65378 19.1064 3.63151C19.0841 3.60923 19.0347 3.59101 18.9965 3.59101C18.9528 3.59101 18.9271 3.57599 18.9271 3.55051C18.9271 3.52532 18.9016 3.51001 18.8596 3.51001C18.8224 3.51001 18.7921 3.49786 18.7921 3.48301C18.7921 3.46816 18.7738 3.45601 18.7516 3.45601C18.7293 3.45601 18.7109 3.43476 18.7106 3.40876C18.7103 3.36831 18.7064 3.36734 18.6836 3.40201C18.6651 3.43028 18.6509 3.43341 18.6368 3.4124C18.6257 3.39582 18.5892 3.37376 18.5558 3.36332C18.5224 3.35289 18.4951 3.33305 18.4951 3.3192C18.4951 3.30535 18.4586 3.29401 18.4141 3.29401C18.3601 3.29401 18.3331 3.28051 18.3331 3.25351C18.3331 3.22651 18.3061 3.21301 18.2521 3.21301C18.1981 3.21301 18.1711 3.19951 18.1711 3.17251C18.1711 3.14313 18.1408 3.13201 18.0611 3.13201C17.9994 3.13201 17.9334 3.11424 17.9107 3.09151C17.8884 3.06923 17.8346 3.05101 17.7911 3.05101C17.7476 3.05101 17.7121 3.03886 17.7121 3.02401C17.7121 3.00916 17.6765 2.99701 17.633 2.99701C17.5895 2.99701 17.5377 2.98086 17.518 2.9611C17.4982 2.94136 17.4337 2.91733 17.3745 2.90774C17.3154 2.89813 17.2628 2.87786 17.2578 2.86265C17.2527 2.84745 17.201 2.83501 17.1428 2.83501C17.0668 2.83501 17.0371 2.82361 17.0371 2.79451C17.0371 2.76451 17.0055 2.75401 16.9156 2.75401C16.8256 2.75401 16.7941 2.7435 16.7941 2.71351C16.7941 2.6814 16.7553 2.67301 16.6073 2.67301C16.4928 2.67301 16.4166 2.66123 16.4104 2.64258C16.4048 2.62584 16.337 2.60607 16.2597 2.59865C16.1823 2.59122 16.1191 2.57454 16.1191 2.56158C16.1191 2.54862 16.0288 2.53801 15.9185 2.53801C15.7762 2.53801 15.7061 2.52623 15.6774 2.49751C15.647 2.46716 15.5722 2.45701 15.3785 2.45701C15.1668 2.45701 15.1201 2.44969 15.1201 2.41651C15.1201 2.35622 12.6949 2.35721 12.6418 2.41753ZM7.33247 7.33242C7.29416 7.37076 7.29005 7.99854 7.29005 13.8394V20.304H8.11355H8.93705V16.659V13.014H12.9466H16.9561V12.1905V11.367H12.9466H8.93705V10.152V8.93701H14.6206H20.3041V8.11351V7.29001H13.8395C7.99859 7.29001 7.37081 7.29411 7.33247 7.33242ZM11.5291 15.9705V16.794H14.2426H16.9561V15.9705V15.147H14.2426H11.5291V15.9705ZM3.4088 24.2927C3.34994 24.3133 3.37238 24.354 3.44255 24.354C3.47968 24.354 3.51005 24.3432 3.51005 24.3299C3.51005 24.2988 3.45222 24.2776 3.4088 24.2927Z" fill="#24D464"/>
</g>
<defs>
<clipPath id="clip0_496_561">
<rect width="27.648" height="27.648" fill="white"/>
</clipPath>
</defs>
</svg>
